Coordinates
version=1
nRows=13
nColumns=22
inDegrees=yes

Units are S.I. units (second, meters, Newtons, ...)
If the header above contains a line with 'inDegrees', this indicates whether rotational values are in degrees (yes) or radians (no).

endheader
time	pelvis_tilt	pelvis_list	pelvis_rotation	pelvis_tx	pelvis_ty	pelvis_tz	hip_flexion_r	hip_adduction_r	hip_rotation_r	knee_angle_r	ankle_angle_r	subtalar_angle_r	hip_flexion_l	hip_adduction_l	hip_rotation_l	knee_angle_l	ankle_angle_l	subtalar_angle_l	lumbar_extension	lumbar_bending	lumbar_rotation
      0.01000000	      1.95174203	     -0.46435124	      1.02231887	      0.84196553	      1.08086081	     -0.34425032	     -4.79878657	      1.35615039	     -4.92719480	     -9.28554231	     11.95247632	     -3.32324873	     -3.89670699	      0.38568079	      0.69590446	     -9.88660310	     12.95135745	     -0.49119213	     -3.07700100	     -1.47604961	     -5.41302724
      0.02000000	      1.94737463	     -0.46720098	      1.01747058	      0.84206781	      1.08085763	     -0.34417658	     -4.80521349	      1.36392565	     -4.92424137	     -9.27487046	     11.95289515	     -3.32593575	     -3.90660482	      0.37838718	      0.68693756	     -9.87049329	     12.95719617	     -0.48778564	     -3.04080392	     -1.48610406	     -5.42675972
      0.03000000	      1.94235883	     -0.46829687	      1.00991920	      0.84218025	      1.08085394	     -0.34409514	     -4.81323240	      1.36981070	     -4.91674569	     -9.26095528	     11.95310656	     -3.32861095	     -3.91623957	      0.37304954	      0.67856669	     -9.85563830	     12.95957458	     -0.48335432	     -2.99907146	     -1.49950328	     -5.44134509
      0.04000000	      1.93772200	     -0.46923020	      1.00097114	      0.84229669	      1.08084994	     -0.34400702	     -4.82180465	      1.37583239	     -4.90535904	     -9.24729052	     11.95336269	     -3.33093815	     -3.92560333	      0.36806900	      0.67028370	     -9.84297429	     12.96026785	     -0.47840645	     -2.95564978	     -1.51519792	     -5.45461529
      0.05000000	      1.93357540	     -0.47108189	      0.98876846	      0.84241822	      1.08084418	     -0.34390470	     -4.83120713	      1.38277559	     -4.89084890	     -9.23314971	     11.95421181	     -3.33252105	     -3.93492291	      0.36151826	      0.66070959	     -9.83240348	     12.96124758	     -0.47329767	     -2.91147709	     -1.53266002	     -5.46606298
      0.06000000	      1.93060177	     -0.47447635	      0.97278652	      0.84254620	      1.08083786	     -0.34379314	     -4.84209165	      1.39126602	     -4.87070358	     -9.21941764	     11.95518618	     -3.33309308	     -3.94370756	      0.35378609	      0.64897186	     -9.82662666	     12.96382545	     -0.46762796	     -2.86742558	     -1.54952990	     -5.47264967
      0.07000000	      1.93891439	     -0.47824800	      0.96123731	      0.84265536	      1.08084191	     -0.34369222	     -4.85322664	      1.39835964	     -4.86843485	     -9.22740360	     11.95471659	     -3.33293892	     -3.95435976	      0.34572845	      0.65078143	     -9.83879292	     12.96348180	     -0.46717049	     -2.84011650	     -1.56560113	     -5.47657474
      0.08000000	      1.93550872	     -0.49153451	      0.91538638	      0.84280126	      1.08083012	     -0.34351520	     -4.87017555	      1.41786320	     -4.78469844	     -9.19934317	     11.95239638	     -3.32719831	     -3.96081964	      0.32757417	      0.60196783	     -9.84279301	     12.98547215	     -0.45080679	     -2.79293720	     -1.57540274	     -5.45145149
      0.09000000	      1.94476766	     -0.49621738	      0.90262438	      0.84293205	      1.08083135	     -0.34339501	     -4.88243352	      1.42689536	     -4.78454500	     -9.20887209	     11.95227176	     -3.32694108	     -3.97264340	      0.31823993	      0.60332074	     -9.85612251	     12.98545605	     -0.45053476	     -2.76512972	     -1.59471903	     -5.45530428
      0.10000000	      1.96162940	     -0.51179408	      0.84969630	      0.84308859	      1.08083810	     -0.34320313	     -4.91357547	      1.44739160	     -4.71357055	     -9.19460271	     11.95919290	     -3.31863719	     -3.99569778	      0.29713807	      0.53509149	     -9.87146197	     13.02273088	     -0.43667880	     -2.74204027	     -1.60332827	     -5.41798220
      0.11000000	      1.97170777	     -0.51681058	      0.83657454	      0.84323396	      1.08084095	     -0.34307680	     -4.92664298	      1.45716826	     -4.71260041	     -9.20516694	     11.95878155	     -3.31832966	     -4.00819091	      0.28753923	      0.53762654	     -9.88624006	     13.02216691	     -0.43636973	     -2.71413760	     -1.62418013	     -5.42132015
      0.12000000	      1.98206731	     -0.52224122	      0.82112957	      0.84337958	      1.08084349	     -0.34294638	     -4.94004870	      1.46716956	     -4.70994686	     -9.21424747	     11.95922937	     -3.31789720	     -4.02098324	      0.27769154	      0.53887781	     -9.90144197	     13.02293014	     -0.43619251	     -2.68686804	     -1.64535922	     -5.42390393
      0.13000000	      2.02333576	     -0.54029393	      0.73836393	      0.84353637	      1.08087916	     -0.34270805	     -4.99169604	      1.48935002	     -4.58475436	     -9.20868105	     11.97072951	     -3.30876035	     -4.07492308	      0.25494102	      0.43332740	     -9.91194837	     13.07071032	     -0.42258063	     -2.69452863	     -1.65386997	     -5.34615344
